<?xml version="1.0" standalone="no"?>
<!DOCTYPE svg PUBLIC "-//W3C//DTD SVG 20010904//EN"
 "http://www.w3.org/TR/2001/REC-SVG-20010904/DTD/svg10.dtd">
<svg version="1.0" xmlns="http://www.w3.org/2000/svg"
 width="150.000000pt" height="148.000000pt" viewBox="0 0 150.000000 148.000000"
 preserveAspectRatio="xMidYMid meet">

<g transform="translate(-20.000000,165.000000) scale(0.110000,-0.110000)"
fill="#000000" stroke="none">
<path d="M707 1402 c-10 -11 -17 -35 -17 -59 l0 -41 -124 -3 c-119 -4 -126 -5
-167 -34 -75 -53 -84 -84 -84 -280 0 -157 2 -173 22 -212 25 -47 93 -93 136
-93 56 0 27 -30 -83 -85 -126 -63 -153 -91 -129 -134 22 -40 56 -38 148 8 44
23 83 41 86 41 3 0 5 -79 5 -175 0 -173 0 -176 25 -200 28 -29 42 -31 73 -9
20 13 22 24 22 95 l0 79 130 0 130 0 0 -79 c0 -71 2 -82 22 -95 31 -22 45 -20
73 9 25 24 25 27 25 200 0 96 2 175 5 175 3 0 42 -18 86 -41 92 -46 126 -48
148 -8 24 43 -3 71 -129 134 -110 55 -139 85 -83 85 43 0 111 46 136 93 20 39
22 55 22 212 0 196 -9 227 -84 280 -41 29 -48 30 -167 34 l-124 3 0 42 c0 68
-63 103 -103 58z m316 -233 c12 -7 25 -17 29 -23 4 -6 8 -78 8 -160 0 -125 -3
-152 -17 -168 -15 -17 -37 -18 -291 -18 -242 0 -278 2 -294 17 -16 14 -18 33
-18 167 0 83 4 156 8 162 20 30 52 33 300 34 172 0 260 -4 275 -11z m-148
-619 l0 -125 -125 0 -125 0 -2 115 c0 63 1 121 3 128 3 10 33 12 126 10 l123
-3 0 -125z"/>
<path d="M580 1028 c-24 -26 -25 -46 -4 -76 30 -44 114 -18 114 36 0 20 -47
62 -69 62 -11 0 -29 -10 -41 -22z"/>
<path d="M834 1025 c-19 -19 -23 -31 -18 -48 11 -36 25 -47 59 -47 34 0 48 11
59 47 8 25 -31 73 -59 73 -9 0 -27 -11 -41 -25z"/>
</g>
</svg>
